<?xml version="1.0" encoding="utf-8"?>
<!-- Generator: Adobe Illustrator 27.4.1, SVG Export Plug-In . SVG Version: 6.00 Build 0)  -->
<svg version="1.1" id="logotype-default" xmlns="http://www.w3.org/2000/svg" xmlns:xlink="http://www.w3.org/1999/xlink" x="0px"
	 y="0px" viewBox="0 0 361 108" style="enable-background:new 0 0 361 108;" xml:space="preserve">
<style type="text/css">
	.st0{fill:#FF4069;}
	.st1{fill:#FFFFFF;}
</style>
<path d="M29,86.5c-2.4-2-5.7-3.1-8-3.7L14.4,81c-4.7-1.3-6.2-2.8-6.2-6.1s3-5.3,7.9-5.3c5.3,0,8.2,2.2,8.6,6.6v0.6h7l-0.1-0.6
	c-0.7-8.3-6.3-12.9-15.4-12.9c-8.6,0-14.7,4.9-14.7,11.6c0,6.3,3.3,10.2,10.4,12.2l8.1,2.3c4.2,1.2,5.9,2.9,5.9,6.1
	c0,4.5-4.9,6.1-9.2,6.1c-4,0-9-1.3-9.6-7.4v-0.6H0l0.1,0.6c0.6,8.3,7.1,13.5,16.6,13.5c9.3,0,15.9-5.2,15.9-12.5
	C32.7,91.5,31.5,88.7,29,86.5z M34.8,70.5h12.3v36.3H54V70.5h12.3v-6.3H34.8V70.5z M108.5,106.8h6.9V88.3h18.1v-6.4h-18.1V70.5H135
	v-6.3h-26.5C108.5,64.2,108.5,106.8,108.5,106.8z M140.7,70.5H153v36.3h6.9V70.5h12.3v-6.3h-31.6v6.3H140.7z M177.6,106.8h28.6v-6.3
	h-21.6V88.3h18.7v-6.4h-18.7V70.5h21.6v-6.3h-28.6C177.6,64.2,177.6,106.8,177.6,106.8z M219.6,64.2h-7v42.6h25.6v-6.3h-18.6
	C219.6,100.5,219.6,64.2,219.6,64.2z M261.3,82.8l-6.6-1.8c-4.7-1.3-6.2-2.8-6.2-6.1s3-5.3,7.9-5.3c5.3,0,8.2,2.2,8.6,6.6l0.1,0.6h7
	l-0.1-0.6c-0.7-8.1-6.4-12.7-15.4-12.7c-8.6,0-14.7,4.9-14.7,11.6c0,6.3,3.3,10.2,10.4,12.2l8.1,2.3c4.1,1.2,5.8,2.9,5.8,6.1
	c0,4.5-4.9,6.1-9.2,6.1c-4,0-9-1.3-9.6-7.4l-0.1-0.5h-7l0.1,0.6c0.7,8.3,7.1,13.5,16.6,13.5c9.3,0,15.9-5.2,15.9-12.5
	C272.9,87.1,267,84.4,261.3,82.8L261.3,82.8z M279,106.8h28.6v-6.3h-21.7V88.3h18.8v-6.4h-18.8V70.5h21.7v-6.3H279L279,106.8
	L279,106.8z M340.4,64.2v33L324,64.3l-0.1-0.1h-9v42.6h6.7V73.6l16.3,33.1v0.1h9.2V64.2L340.4,64.2L340.4,64.2z M72.7,70.6h10.9
	v29.8H72.7v6.4h28.6v-6.4H90.5V70.6h10.8v-6.4H72.7V70.6z M64.5,41.1L48.2,8.2V8.1H39v42.6h6.8V17.5l16.3,33.1v0.1h9.1V8.1h-6.7
	V41.1z M76.9,14.4h12.2v36.3h7V14.4h12.3V8.1H76.9C76.9,8.1,76.9,14.4,76.9,14.4z M142.6,44.4H121V32.2h18.8v-6.4H121V14.4h21.6V8.1
	H114v42.6h28.6V44.4z M169.4,32.8l0.4-0.1c2.5-0.4,4.4-1.4,6.1-3.1c2.1-2.1,3.1-5.1,3.1-9.1c0-4.2-1.1-7.3-3.3-9.3
	c-2.2-2.1-5.7-3.1-10.2-3.1h-16v42.6h6.7V33.1h6.2l0.1,0.2l9.7,17.5h7.7C179.9,50.8,169.4,32.8,169.4,32.8z M156.1,27.2v-13h11.6
	c2.7,0,4.3,1.5,4.3,4.1v4.6c0,2.2-1.3,4.3-4.3,4.3C167.7,27.2,156.1,27.2,156.1,27.2z M219.1,8.1h-6.8v33L196.1,8.2L196,8.1h-9.1
	v42.6h6.8V17.5l16.2,33.1l0.1,0.1h9.1C219.1,50.7,219.1,8.1,219.1,8.1z M254.7,44.4h-21.5V32.2H252v-6.4h-18.7V14.4h21.5V8.1h-28.5
	v42.6h28.5L254.7,44.4L254.7,44.4z M279.7,50.7V14.4H292V8.1h-31.6v6.3h12.3v36.3L279.7,50.7L279.7,50.7z M31.2,44.3H20.5V14.5h10.7
	V8.1H2.8v6.4h10.8v29.8H2.8v6.4h28.4C31.2,50.7,31.2,44.3,31.2,44.3z"/>
<path class="st0" d="M360,8.1v14.2h-6.4v7.1h-6.4v7h-6.4v7.1h-6.4v7.1h-7v-7.1H321v-7.1h-6.4v-7h-6.4v-7.1H302V8.1h6.4V1h19.1v7.1h7
	V1h19.1v7.1H360z"/>
<path class="st1" d="M353,12.7v4.6h-8.9V7.9h4.5v4.8C348.6,12.7,353,12.7,353,12.7z"/>
</svg>
