<?xml version="1.0" encoding="utf-8"?>
<!-- Generator: Adobe Illustrator 27.5.0, SVG Export Plug-In . SVG Version: 6.00 Build 0)  -->
<svg version="1.1" id="logotype-default" xmlns="http://www.w3.org/2000/svg" xmlns:xlink="http://www.w3.org/1999/xlink" x="0px"
	 y="0px" viewBox="0 0 724.5 146" style="enable-background:new 0 0 724.5 146;" xml:space="preserve">
<style type="text/css">
	.st0{fill:#FF4069;}
	.st1{fill:#FFFFFF;}
	.st2{fill-rule:evenodd;clip-rule:evenodd;fill:#12284C;}
</style>
<path d="M29,107.5c-2.4-2-5.7-3.1-8-3.7l-6.6-1.8c-4.7-1.3-6.2-2.8-6.2-6.1s3-5.3,7.9-5.3c5.3,0,8.2,2.2,8.6,6.6v0.6h7l-0.1-0.6
	c-0.7-8.3-6.3-12.9-15.4-12.9c-8.6,0-14.7,4.9-14.7,11.6c0,6.3,3.3,10.2,10.4,12.2l8.1,2.3c4.2,1.2,5.9,2.9,5.9,6.1
	c0,4.5-4.9,6.1-9.2,6.1c-4,0-9-1.3-9.6-7.4v-0.6H0l0.1,0.6c0.6,8.3,7.1,13.5,16.6,13.5c9.3,0,15.9-5.2,15.9-12.5
	C32.7,112.5,31.5,109.7,29,107.5z M34.8,91.5h12.3v36.3H54V91.5h12.3v-6.3H34.8V91.5z M108.5,127.8h6.9v-18.5h18.1v-6.4h-18.1V91.5
	H135v-6.3h-26.5V127.8z M140.7,91.5H153v36.3h6.9V91.5h12.3v-6.3h-31.6v6.3H140.7z M177.6,127.8h28.6v-6.3h-21.6v-12.2h18.7v-6.4
	h-18.7V91.5h21.6v-6.3h-28.6V127.8z M219.6,85.2h-7v42.6h25.6v-6.3h-18.6C219.6,121.5,219.6,85.2,219.6,85.2z M261.3,103.8l-6.6-1.8
	c-4.7-1.3-6.2-2.8-6.2-6.1s3-5.3,7.9-5.3c5.3,0,8.2,2.2,8.6,6.6l0.1,0.6h7l-0.1-0.6c-0.7-8.1-6.4-12.7-15.4-12.7
	c-8.6,0-14.7,4.9-14.7,11.6c0,6.3,3.3,10.2,10.4,12.2l8.1,2.3c4.1,1.2,5.8,2.9,5.8,6.1c0,4.5-4.9,6.1-9.2,6.1c-4,0-9-1.3-9.6-7.4
	l-0.1-0.5h-7l0.1,0.6c0.7,8.3,7.1,13.5,16.6,13.5c9.3,0,15.9-5.2,15.9-12.5C272.9,108.1,267,105.4,261.3,103.8L261.3,103.8z
	 M279,127.8h28.6v-6.3h-21.7v-12.2h18.8v-6.4h-18.8V91.5h21.7v-6.3H279V127.8L279,127.8z M340.4,85.2v33L324,85.3l-0.1-0.1h-9v42.6
	h6.7V94.6l16.3,33.1v0.1h9.2V85.2H340.4L340.4,85.2z M72.7,91.6h10.9v29.8H72.7v6.4h28.6v-6.4H90.5V91.6h10.8v-6.4H72.7V91.6z
	 M64.5,62.1L48.2,29.2v-0.1H39v42.6h6.8V38.5l16.3,33.1v0.1h9.1V29.1h-6.7V62.1z M76.9,35.4h12.2v36.3h7V35.4h12.3v-6.3H76.9V35.4z
	 M142.6,65.4H121V53.2h18.8v-6.4H121V35.4h21.6v-6.3H114v42.6h28.6V65.4z M169.4,53.8l0.4-0.1c2.5-0.4,4.4-1.4,6.1-3.1
	c2.1-2.1,3.1-5.1,3.1-9.1c0-4.2-1.1-7.3-3.3-9.3c-2.2-2.1-5.7-3.1-10.2-3.1h-16v42.6h6.7V54.1h6.2l0.1,0.2l9.7,17.5h7.7L169.4,53.8z
	 M156.1,48.2v-13h11.6c2.7,0,4.3,1.5,4.3,4.1v4.6c0,2.2-1.3,4.3-4.3,4.3C167.7,48.2,156.1,48.2,156.1,48.2z M219.1,29.1h-6.8v33
	l-16.2-32.9l-0.1-0.1h-9.1v42.6h6.8V38.5l16.2,33.1l0.1,0.1h9.1C219.1,71.7,219.1,29.1,219.1,29.1z M254.7,65.4h-21.5V53.2H252v-6.4
	h-18.7V35.4h21.5v-6.3h-28.5v42.6h28.5L254.7,65.4L254.7,65.4z M279.7,71.7V35.4H292v-6.3h-31.6v6.3h12.3v36.3H279.7L279.7,71.7z
	 M31.2,65.3H20.5V35.5h10.7v-6.4H2.8v6.4h10.8v29.8H2.8v6.4h28.4C31.2,71.7,31.2,65.3,31.2,65.3z"/>
<path class="st0" d="M360,29.1v14.2h-6.4v7.1h-6.4v7h-6.4v7.1h-6.4v7.1h-7v-7.1H321v-7.1h-6.4v-7h-6.4v-7.1H302V29.1h6.4V22h19.1
	v7.1h7V22h19.1v7.1H360z"/>
<path class="st1" d="M353,33.7v4.6h-8.9v-9.4h4.5v4.8C348.6,33.7,353,33.7,353,33.7z"/>
<g id="HOMEPAGE">
	<g id="Afnic_x5F_homepage_x5F_desktop_x5F_v1-VIDEO-_x2B_-FR-STICKY" transform="translate(-89.000000, -18.000000)">
		<g id="HEADER">
			<g id="LOGO-BLEU" transform="translate(89.000000, 17.000000)">
				<g id="logo_x2F_afnic">
					<g id="Group-3" transform="translate(0.000000, 0.821571)">
						<g id="Clip-2">
						</g>
						<path id="Fill-1" class="st2" d="M447.3,82.8c-7.1,2.9-9.1-2.7-8-8.9c1-5.4,8.2-19.3,28.3-20.7c4.2-0.3,8.1,0.4,10.1,1
							C471.6,63.1,460.6,76.7,447.3,82.8 M701.7,67.1c-6.5,1-10.4,2.2-17.8,5.7c-14.9,7-23.9,14.2-31.8,16c-7,1.7-13.3,1.9-13.1-8.7
							c0.1-4.9,7.6-18.9,21.2-21.7c3.9-0.4,3.7,2.7,3.7,2.7s0.5,5.6,5.2,6c7.5,0.1,9-5.5,8.3-9.8c-0.7-6.7-10.8-18.5-29.1-10
							c0,0-18.1,9.2-24.8,23.6c-2.3,5.1-2.6,8.3-2.6,10.7c-2.3,2-3.6,2.9-5.6,3.9c-1.9,0.9-5.9,0.9-6.4-1.8
							c-1.2-8.4,16.7-37.2,16.5-40.1c-0.2-2.9-11.3-0.6-12.5-0.2c-1.2,0.4-2.3,0.4-3.3,2.5c-3.3,7.2-9,17.9-15.8,32.3
							c-0.1,0.3-0.3,0.6-0.5,0.8v0c-3.7,7.1-8.5,8.1-9.7,8.3c-0.8,0-1.4-0.2-1.9-0.5c-1.1-0.6-2.3-1.8-1.7-5.3
							c0.6-3.3,11.5-24.9,12.1-31.8c0.7-7.6-5.9-8.3-12.1-6.2c-8.5,2.9-22.8,20.8-28.2,25.6c-2.5,2.2-1.9,0.2-1.7-1.2
							c0.2-1.4,3.1-10.2,4.3-17.6c0.8-4.7-5.9-7.7-12.2-3.2c-0.9,0.7-11.6,10.7-26.6,20.4l3.1-8.7L529,31.2c2-5.3,3.9-8,6.4-9.8
							c2.5-1.8,5.4-2.7,8.7-2.7c1.8,0,3.2,0.3,4.3,0.8c2,0.8,4.7,3.2,7,3.2c4.4,0,7.9-3.4,7.9-7.5c0-2.4-1.7-5.6-6-8.4
							c-3.1-2-6.9-2.9-11.4-2.9c-9.4,0-16.9,2.6-22.6,7.8s-10.3,13-13.7,23.1l-16.1,45.9c-3.1,2-5.1,3.3-5.4,3.5
							c-12.2,7.2-9.4-0.8-5.6-8.2c3.8-7.4,11-19.4,9.6-24.2c-1.1-4-7.4-8.1-17.8-10.1c-3.4-0.6-41.2-6.8-51,30.8
							c-4.7,18.2,4.3,30.8,18.9,30.2c6.4-0.3,18.4-4.3,29.6-23.3c-2.4,9.5-4.8,24.5,8.3,24.9c1.4,0,3.4-0.4,5.8-1.3l-11,31.4
							c0,0-0.4,1-0.7,2.4c-0.4,1.7,0.6,3.9,2.2,5.2c1.7,1.3,3.4,2,5.2,2c1.9,0,3.9-0.3,5.7-1.5c1.8-1.2,3.2-2.3,4.2-4.4l16.8-48
							c11-8.7,19.4-15.6,20.7-16.6c3.5-2.7,6-5.2,6.1-3.1c0,5.6-5.9,20.2-5.9,28.8c0.2,6.5,5.3,7.3,9.3,5.2
							c5.7-3.2,27.2-34,30.9-37.3c0.4,3.5-6.2,20.8-7.2,26.7c-1,6,0.6,9.3,4.5,11c6.9,3.4,20.4-4.2,24.2-6.5c0.5,1.6,1,2.5,1,2.5
							c2.1,2.7,6,5.2,13.6,4.9c5.2-0.2,12.6-4.7,19-9.2c3.8,5.8,12.2,10.8,27.4,8.4c12-2.4,21.7-10.6,34.7-18.3
							c14.6-9.3,25.2-11.4,37.6-9C721.7,71,716.1,65,701.7,67.1"/>
					</g>
					<path id="Fill-4" class="st2" d="M631.4,33.4c3.2-4.8,2.8-10.6-0.7-12.9c-3.5-2.3-9-0.3-12.1,4.4s-2.8,10.6,0.7,12.9
						C622.8,40.2,628.3,38.2,631.4,33.4z"/>
					<g id="Clip-7">
					</g>
				</g>
			</g>
		</g>
	</g>
</g>
</svg>
