<?xml version="1.0" encoding="utf-8"?>
<!-- Generator: Adobe Illustrator 27.5.0, SVG Export Plug-In . SVG Version: 6.00 Build 0)  -->
<svg version="1.1" id="logotype-default" xmlns="http://www.w3.org/2000/svg" xmlns:xlink="http://www.w3.org/1999/xlink" x="0px"
	 y="0px" viewBox="0 0 303.7 146" style="enable-background:new 0 0 303.7 146;" xml:space="preserve">
<style type="text/css">
	.st0{fill-rule:evenodd;clip-rule:evenodd;fill:#12284C;}
</style>
<g id="HOMEPAGE">
	<g id="Afnic_x5F_homepage_x5F_desktop_x5F_v1-VIDEO-_x2B_-FR-STICKY" transform="translate(-89.000000, -18.000000)">
		<g id="HEADER">
			<g id="LOGO-BLEU" transform="translate(89.000000, 17.000000)">
				<g id="logo_x2F_afnic">
					<g id="Group-3" transform="translate(0.000000, 0.821571)">
						<g id="Clip-2">
						</g>
						<path id="Fill-1" class="st0" d="M26.5,82.8c-7.1,2.9-9.1-2.7-8-8.9c1-5.4,8.2-19.3,28.3-20.7c4.2-0.3,8.1,0.4,10.1,1
							C50.8,63.1,39.8,76.7,26.5,82.8 M280.9,67.1c-6.5,1-10.4,2.2-17.8,5.7c-14.9,7-23.9,14.2-31.8,16c-7,1.7-13.3,1.9-13.1-8.7
							c0.1-4.9,7.6-18.9,21.2-21.7c3.9-0.4,3.7,2.7,3.7,2.7s0.5,5.6,5.2,6c7.5,0.1,9-5.5,8.3-9.8c-0.7-6.7-10.8-18.5-29.1-10
							c0,0-18.1,9.2-24.8,23.6c-2.3,5.1-2.6,8.3-2.6,10.7c-2.3,2-3.6,2.9-5.6,3.9c-1.9,0.9-5.9,0.9-6.4-1.8
							c-1.2-8.4,16.7-37.2,16.5-40.1c-0.2-2.9-11.3-0.6-12.5-0.2c-1.2,0.4-2.3,0.4-3.3,2.5c-3.3,7.2-9,17.9-15.8,32.3
							c-0.1,0.3-0.3,0.6-0.5,0.8l0,0c-3.7,7.1-8.5,8.1-9.7,8.3c-0.8,0-1.4-0.2-1.9-0.5c-1.1-0.6-2.3-1.8-1.7-5.3
							c0.6-3.3,11.5-24.9,12.1-31.8c0.7-7.6-5.9-8.3-12.1-6.2c-8.5,2.9-22.8,20.8-28.2,25.6c-2.5,2.2-1.9,0.2-1.7-1.2
							c0.2-1.4,3.1-10.2,4.3-17.6c0.8-4.7-5.9-7.7-12.2-3.2c-0.9,0.7-11.6,10.7-26.6,20.4l3.1-8.7l10.3-27.6c2-5.3,3.9-8,6.4-9.8
							s5.4-2.7,8.7-2.7c1.8,0,3.2,0.3,4.3,0.8c2,0.8,4.7,3.2,7,3.2c4.4,0,7.9-3.4,7.9-7.5c0-2.4-1.7-5.6-6-8.4
							c-3.1-2-6.9-2.9-11.4-2.9c-9.4,0-16.9,2.6-22.6,7.8s-10.3,13-13.7,23.1L72.7,80.7c-3.1,2-5.1,3.3-5.4,3.5
							c-12.2,7.2-9.4-0.8-5.6-8.2c3.8-7.4,11-19.4,9.6-24.2c-1.1-4-7.4-8.1-17.8-10.1c-3.4-0.6-41.2-6.8-51,30.8
							c-4.7,18.2,4.3,30.8,18.9,30.2c6.4-0.3,18.4-4.3,29.6-23.3c-2.4,9.5-4.8,24.5,8.3,24.9c1.4,0,3.4-0.4,5.8-1.3l-11,31.4
							c0,0-0.4,1-0.7,2.4c-0.4,1.7,0.6,3.9,2.2,5.2c1.7,1.3,3.4,2,5.2,2c1.9,0,3.9-0.3,5.7-1.5c1.8-1.2,3.2-2.3,4.2-4.4l16.8-48
							c11-8.7,19.4-15.6,20.7-16.6c3.5-2.7,6-5.2,6.1-3.1c0,5.6-5.9,20.2-5.9,28.8c0.2,6.5,5.3,7.3,9.3,5.2
							c5.7-3.2,27.2-34,30.9-37.3c0.4,3.5-6.2,20.8-7.2,26.7c-1,6,0.6,9.3,4.5,11c6.9,3.4,20.4-4.2,24.2-6.5c0.5,1.6,1,2.5,1,2.5
							c2.1,2.7,6,5.2,13.6,4.9c5.2-0.2,12.6-4.7,19-9.2c3.8,5.8,12.2,10.8,27.4,8.4c12-2.4,21.7-10.6,34.7-18.3
							c14.6-9.3,25.2-11.4,37.6-9C300.9,71,295.3,65,280.9,67.1"/>
					</g>
					<path id="Fill-4" class="st0" d="M210.6,33.4c3.2-4.8,2.8-10.6-0.7-12.9s-9-0.3-12.1,4.4s-2.8,10.6,0.7,12.9
						C202,40.2,207.5,38.2,210.6,33.4z"/>
					<g id="Clip-7">
					</g>
				</g>
			</g>
		</g>
	</g>
</g>
</svg>
